# xmcd
#
# Track frame offsets: 
#        150
#        12980
#        27175
#        41440
#        55387
#        70243
#        82485
#        94339
#        107283
#        122122
#        136296
#        149706
#        162562
#        175522
#        190118
#        205268
#        218114
#        230004
#        241964
#        254598
#        269291
#        282417
#        293959
#        305674
#        319469
#
# Disc length: 4795 seconds
#
# Revision: 7
# Processed by: cddbd v1.5.2PL0 Copyright (c) Steve Scherf et al.
# Submitted via: ExactAudioCopyFreeDBPlugin 1.0
#
DISCID=8912b919
DTITLE=Various Artist - Back To The River: More Southern Soul Stories
DTITLE=1961-1978 - Disc 01 - Muscle Shoals-Memphis Redux
DYEAR=2015
DGENRE=Soul
TTITLE0=Solomon Burke - I Wish I Knew (How It Would Feel To Be Free) [
TTITLE0=1968]
TTITLE1=Betty LaVette - Nearer To You [1969]
TTITLE2=Judy Clay and William Bell - Private Number (Ext. Version) [1968
TTITLE2=]
TTITLE3=Otis Redding - Free Me (Take 1) [1967]
TTITLE4=Bobby Bland - A Touch Of The Blues [1967]
TTITLE5=Dee Dee Sharp - This Love Won't Run Out [1968]
TTITLE6=Eddie Floyd - I Got Everything I Need [1966]
TTITLE7=Gloria Walker and The Chevelles - Please Don't Desert Me Baby [1
TTITLE7=968]
TTITLE8=Sam Baker - Sugarman (Ext. Version) [1965]
TTITLE9=Joe Perkins - Think I'll Go Somewhere And Cry Myself To Sleep 
TTITLE9=[1969]
TTITLE10=Jeanie Greene - Sure As Sin [1969]
TTITLE11=Rudolph Taylor - What's That You Got [1966]
TTITLE12=Mary Wells - I Found What I Wanted [1971]
TTITLE13=Melvin Carter - I've Got Memories (Demo) [Prev. Unissued]
TTITLE14=Joe Simon - Message From Maria [1974]
TTITLE15=Mable John - Problems [1967]
TTITLE16=O.V. Wright - I've Been Searching [1974]
TTITLE17=Clarence Carter - She Ain't Gonna Do Right (Alt. Version) [19
TTITLE17=67]
TTITLE18=Barbara West - Give Me Back The Man I Love [1969]
TTITLE19=Bill Coday - You're Gonna Want Me [1970]
TTITLE20=Bettye Swann - I'm Just Living A Lie [1971]
TTITLE21=Jimmy Braswell - Home For The Summer [1970]
TTITLE22=Ella Washington - Too Weak To Fight (Ext. Version) [1972]
TTITLE23=Na Allen - Everytime It Rains (aka Teardrops From My Eyes) [1
TTITLE23=970]
TTITLE24=The Soul Children - Yesterday [1974]
EXTD=
EXTT0=
EXTT1=
EXTT2=
EXTT3=
EXTT4=
EXTT5=
EXTT6=
EXTT7=
EXTT8=
EXTT9=
EXTT10=
EXTT11=
EXTT12=
EXTT13=
EXTT14=
EXTT15=
EXTT16=
EXTT17=
EXTT18=
EXTT19=
EXTT20=
EXTT21=
EXTT22=
EXTT23=
EXTT24=
PLAYORDER=
